<svg width="980" height="300" viewBox="0 0 980 300" fill="none" xmlns="http://www.w3.org/2000/svg" role="img" aria-labelledby="title desc">
  <title id="title">Josiah focus map</title>
  <desc id="desc">A visual map of Josiah's focus areas: identity, payments, community, and web applications.</desc>
  <defs>
    <linearGradient id="panel" x1="0" y1="0" x2="980" y2="300" gradientUnits="userSpaceOnUse">
      <stop stop-color="#F8FAFC"/>
      <stop offset="1" stop-color="#ECFEFF"/>
    </linearGradient>
  </defs>

  <rect x="1" y="1" width="978" height="298" rx="20" fill="url(#panel)" stroke="#CBD5E1" stroke-width="2"/>
  <text x="44" y="62" fill="#0F172A" font-family="Segoe UI, Arial, sans-serif" font-size="28" font-weight="800">What I Build Around</text>
  <text x="44" y="95" fill="#475569" font-family="Segoe UI, Arial, sans-serif" font-size="16">Simple products with real-world use: networks, payments, community, and practical web tools.</text>

  <g transform="translate(54 142)">
    <rect width="190" height="96" rx="16" fill="#FFFFFF" stroke="#99F6E4"/>
    <circle cx="36" cy="36" r="16" fill="#14B8A6"/>
    <path d="M30 36H42M36 30V42" stroke="#FFFFFF" stroke-width="3" stroke-linecap="round"/>
    <text x="66" y="39" fill="#0F172A" font-family="Segoe UI, Arial, sans-serif" font-size="18" font-weight="750">Identity</text>
    <text x="22" y="72" fill="#64748B" font-family="Segoe UI, Arial, sans-serif" font-size="13">World Network ideas</text>
  </g>

  <g transform="translate(279 142)">
    <rect width="190" height="96" rx="16" fill="#FFFFFF" stroke="#FDE68A"/>
    <circle cx="36" cy="36" r="16" fill="#D97706"/>
    <path d="M29 38C34 45 47 45 43 34C40 25 29 28 30 38Z" stroke="#FFFFFF" stroke-width="3" stroke-linecap="round"/>
    <text x="66" y="39" fill="#0F172A" font-family="Segoe UI, Arial, sans-serif" font-size="18" font-weight="750">Payments</text>
    <text x="22" y="72" fill="#64748B" font-family="Segoe UI, Arial, sans-serif" font-size="13">Pi Network direction</text>
  </g>

  <g transform="translate(504 142)">
    <rect width="190" height="96" rx="16" fill="#FFFFFF" stroke="#BAE6FD"/>
    <circle cx="36" cy="36" r="16" fill="#0284C7"/>
    <path d="M28 41C31 35 36 32 44 33M31 31C35 27 42 27 46 32" stroke="#FFFFFF" stroke-width="3" stroke-linecap="round"/>
    <text x="66" y="39" fill="#0F172A" font-family="Segoe UI, Arial, sans-serif" font-size="18" font-weight="750">Community</text>
    <text x="22" y="72" fill="#64748B" font-family="Segoe UI, Arial, sans-serif" font-size="13">Useful social tools</text>
  </g>

  <g transform="translate(729 142)">
    <rect width="190" height="96" rx="16" fill="#FFFFFF" stroke="#C4B5FD"/>
    <circle cx="36" cy="36" r="16" fill="#7C3AED"/>
    <path d="M28 34H44M28 41H39" stroke="#FFFFFF" stroke-width="3" stroke-linecap="round"/>
    <text x="66" y="39" fill="#0F172A" font-family="Segoe UI, Arial, sans-serif" font-size="18" font-weight="750">Web Apps</text>
    <text x="22" y="72" fill="#64748B" font-family="Segoe UI, Arial, sans-serif" font-size="13">Clean full-stack builds</text>
  </g>
</svg>
